# xmcd
#
# Track frame offsets: 
#        150
#        18660
#        35847
#        52060
#        67547
#        87020
#        105080
#        124182
#        139712
#        155307
#        170809
#        184807
#
# Disc length: 2715 seconds
#
# Revision: 0
# Processed by: cddbd v1.4PL0 Copyright (c) Steve Scherf et al.
# Submitted via: ExactAudioCopy v0.90a11
#
DISCID=990a990c
DTITLE=Gary Fjellgaard - Under Western Skies
DYEAR=1900
DGENRE=
TTITLE0=On The Riverfront
TTITLE1=One More Pony Ride
TTITLE2=Glory Years
TTITLE3=Rhythm Of Your Wings
TTITLE4=Rocks Of Home
TTITLE5=You Don't Give Up
TTITLE6=One More River Run
TTITLE7=A Perfect World
TTITLE8=Rock and Roll Dreams
TTITLE9=Heroes
TTITLE10=You Are My Song
TTITLE11=Under Western Skies
EXTD=
EXTT0=
EXTT1=
EXTT2=
EXTT3=
EXTT4=
EXTT5=
EXTT6=
EXTT7=
EXTT8=
EXTT9=
EXTT10=
EXTT11=
PLAYORDER=
